<?xml version="1.0" encoding="UTF-8"?>
<svg width="100px" height="100px" viewBox="0 0 100 100" version="1.1" xmlns="http://www.w3.org/2000/svg">
    <title>Pattern Background</title>
    <g stroke="none" stroke-width="1" fill="none" fill-rule="evenodd">
        <circle fill="#FFFFFF" opacity="0.1" cx="10" cy="10" r="2"></circle>
        <circle fill="#FFFFFF" opacity="0.1" cx="30" cy="10" r="2"></circle>
        <circle fill="#FFFFFF" opacity="0.1" cx="50" cy="10" r="2"></circle>
        <circle fill="#FFFFFF" opacity="0.1" cx="70" cy="10" r="2"></circle>
        <circle fill="#FFFFFF" opacity="0.1" cx="90" cy="10" r="2"></circle>
        
        <circle fill="#FFFFFF" opacity="0.1" cx="10" cy="30" r="2"></circle>
        <circle fill="#FFFFFF" opacity="0.1" cx="30" cy="30" r="2"></circle>
        <circle fill="#FFFFFF" opacity="0.1" cx="50" cy="30" r="2"></circle>
        <circle fill="#FFFFFF" opacity="0.1" cx="70" cy="30" r="2"></circle>
        <circle fill="#FFFFFF" opacity="0.1" cx="90" cy="30" r="2"></circle>
        
        <circle fill="#FFFFFF" opacity="0.1" cx="10" cy="50" r="2"></circle>
        <circle fill="#FFFFFF" opacity="0.1" cx="30" cy="50" r="2"></circle>
        <circle fill="#FFFFFF" opacity="0.1" cx="50" cy="50" r="2"></circle>
        <circle fill="#FFFFFF" opacity="0.1" cx="70" cy="50" r="2"></circle>
        <circle fill="#FFFFFF" opacity="0.1" cx="90" cy="50" r="2"></circle>
        
        <circle fill="#FFFFFF" opacity="0.1" cx="10" cy="70" r="2"></circle>
        <circle fill="#FFFFFF" opacity="0.1" cx="30" cy="70" r="2"></circle>
        <circle fill="#FFFFFF" opacity="0.1" cx="50" cy="70" r="2"></circle>
        <circle fill="#FFFFFF" opacity="0.1" cx="70" cy="70" r="2"></circle>
        <circle fill="#FFFFFF" opacity="0.1" cx="90" cy="70" r="2"></circle>
        
        <circle fill="#FFFFFF" opacity="0.1" cx="10" cy="90" r="2"></circle>
        <circle fill="#FFFFFF" opacity="0.1" cx="30" cy="90" r="2"></circle>
        <circle fill="#FFFFFF" opacity="0.1" cx="50" cy="90" r="2"></circle>
        <circle fill="#FFFFFF" opacity="0.1" cx="70" cy="90" r="2"></circle>
        <circle fill="#FFFFFF" opacity="0.1" cx="90" cy="90" r="2"></circle>
    </g>
</svg>
